<svg width="40" height="40" viewBox="0 0 40 40" fill="none" xmlns="http://www.w3.org/2000/svg">
  <circle cx="20" cy="20" r="20" fill="#FF6526" />
  <path
    d="M37.3775 18.9674C37.7604 19.6026 37.7604 20.3974 37.3775 21.0326L33.484 27.4911L29.5833 34.0232C29.2217 34.6288 28.5677 34.9991 27.8622 34.9978L20 34.9822L12.1377 34.9978C11.4323 34.9991 10.7783 34.6288 10.4167 34.0232L6.51598 27.4911L2.62248 21.0326C2.23959 20.3974 2.23959 19.6026 2.62248 18.9674L6.51599 12.5089L10.4167 5.97683C10.7783 5.37118 11.4323 5.00085 12.1378 5.00224L20 5.01776L27.8623 5.00224C28.5677 5.00085 29.2217 5.37118 29.5833 5.97684L33.484 12.5089L37.3775 18.9674Z"
    fill="white" />
  <path fill-rule="evenodd" clip-rule="evenodd"
    d="M21.1424 9.4144C20.3613 8.63335 19.095 8.63335 18.3139 9.4144L9.5817 18.1466C9.26672 18.4616 9.4898 19.0002 9.93525 19.0002H29.521C29.9665 19.0002 30.1896 18.4616 29.8746 18.1466L21.1424 9.4144ZM30.1494 23.0232C30.527 22.6451 30.2609 22.0002 29.7265 22.0002C22.6386 22.0002 13.2721 22.0002 9.72726 22.0002C9.1929 22.0002 8.93023 22.6461 9.30784 23.0242L18.3139 32.0418C19.095 32.8229 20.3613 32.8229 21.1424 32.0418C21.1424 32.0418 26.2769 26.9007 30.1494 23.0232Z"
    fill="#FF6526" />
</svg>
