<svg t="1721287705058" class="icon" viewBox="0 0 1024 1024" version="1.1"
  xmlns="http://www.w3.org/2000/svg" p-id="1604" width="32" height="32">
  <path
    d="M622.1 618.6h-82.3v-55.1c41.1-5.6 79.1-23.9 109-52.9 36.3-35.3 56.2-82.2 56.2-132.1 0-49.9-20-96.8-56.2-132.1-36.3-35.3-84.5-54.7-135.8-54.7-51.3 0-99.5 19.4-135.8 54.7C341 281.8 321 328.7 321 378.6c0 49.9 20 96.8 56.2 132.1 29.6 28.8 67.1 47 107.7 52.7v55.2h-82.3c-7.5 0-14.4 3-19.4 7.8-5 4.8-8.1 11.5-8.1 18.8 0 14.7 12.3 26.7 27.4 26.7H485v133.2c0 7.3 3.1 14 8.1 18.8 5 4.8 11.8 7.8 19.4 7.8 15.1 0 27.4-12 27.4-26.7V672h82.3c7.5 0 14.4-3 19.4-7.8 5-4.8 8.1-11.5 8.1-18.8-0.2-14.8-12.5-26.8-27.6-26.8z m-246.2-240c0-73.7 61.4-133.4 137.1-133.4 75.7 0 137.1 59.7 137.1 133.4S588.7 512 513 512c-75.7 0-137.1-59.7-137.1-133.4z"
    fill="#CE2C2C" p-id="1605"></path>
</svg>
